<?xml version="1.0" standalone="no"?><svg xmlns="http://www.w3.org/2000/svg" viewBox="0 0 1440 320"><path fill="#e7008a" fill-opacity="1" d="M0,288L11.4,277.3C22.9,267,46,245,69,229.3C91.4,213,114,203,137,213.3C160,224,183,256,206,256C228.6,256,251,224,274,218.7C297.1,213,320,235,343,224C365.7,213,389,171,411,170.7C434.3,171,457,213,480,197.3C502.9,181,526,107,549,80C571.4,53,594,75,617,96C640,117,663,139,686,154.7C708.6,171,731,181,754,176C777.1,171,800,149,823,160C845.7,171,869,213,891,234.7C914.3,256,937,256,960,234.7C982.9,213,1006,171,1029,154.7C1051.4,139,1074,149,1097,176C1120,203,1143,245,1166,250.7C1188.6,256,1211,224,1234,229.3C1257.1,235,1280,277,1303,282.7C1325.7,288,1349,256,1371,218.7C1394.3,181,1417,139,1429,117.3L1440,96L1440,320L1428.6,320C1417.1,320,1394,320,1371,320C1348.6,320,1326,320,1303,320C1280,320,1257,320,1234,320C1211.4,320,1189,320,1166,320C1142.9,320,1120,320,1097,320C1074.3,320,1051,320,1029,320C1005.7,320,983,320,960,320C937.1,320,914,320,891,320C868.6,320,846,320,823,320C800,320,777,320,754,320C731.4,320,709,320,686,320C662.9,320,640,320,617,320C594.3,320,571,320,549,320C525.7,320,503,320,480,320C457.1,320,434,320,411,320C388.6,320,366,320,343,320C320,320,297,320,274,320C251.4,320,229,320,206,320C182.9,320,160,320,137,320C114.3,320,91,320,69,320C45.7,320,23,320,11,320L0,320Z"></path></svg>